<?xml version="1.0" encoding="UTF-8"?>
<!DOCTYPE svg PUBLIC "-//W3C//DTD SVG 1.1//EN" "http://www.w3.org/Graphics/SVG/1.1/DTD/svg11.dtd">
<svg xmlns="http://www.w3.org/2000/svg" version="1.1" width="512px" height="512px" style="shape-rendering:geometricPrecision; text-rendering:geometricPrecision; image-rendering:optimizeQuality; fill-rule:evenodd; clip-rule:evenodd" xmlns:xlink="http://www.w3.org/1999/xlink">
<g><path style="opacity:0.997" fill="#27273d" d="M 232.5,-0.5 C 247.833,-0.5 263.167,-0.5 278.5,-0.5C 368.144,10.3879 435.644,54.7213 481,132.5C 497.695,163.971 507.861,197.304 511.5,232.5C 511.5,247.833 511.5,263.167 511.5,278.5C 500.612,368.144 456.279,435.644 378.5,481C 347.029,497.695 313.696,507.861 278.5,511.5C 263.167,511.5 247.833,511.5 232.5,511.5C 142.856,500.612 75.3562,456.279 30,378.5C 13.3053,347.029 3.1386,313.696 -0.5,278.5C -0.5,263.167 -0.5,247.833 -0.5,232.5C 7.222,161.047 38.5553,102.381 93.5,56.5C 93.4152,63.5359 96.7486,68.2026 103.5,70.5C 106.333,112.827 109,155.16 111.5,197.5C 102.934,203.429 102.267,210.263 109.5,218C 111.677,219.202 114.011,219.702 116.5,219.5C 124.035,241.438 131.368,263.438 138.5,285.5C 133.431,284.909 128.764,285.909 124.5,288.5C 125.025,289.192 125.692,289.692 126.5,290C 131.155,290.499 135.821,290.666 140.5,290.5C 140.5,290.833 140.5,291.167 140.5,291.5C 140.232,296.5 141.232,301.166 143.5,305.5C 144.183,305.137 144.85,304.804 145.5,304.5C 150.364,318.426 155.031,332.426 159.5,346.5C 155.727,348.713 154.06,352.046 154.5,356.5C 154.175,361.522 156.175,365.188 160.5,367.5C 158.118,387.459 154.785,407.126 150.5,426.5C 150.191,419.88 148.691,413.546 146,407.5C 145,406.167 144,406.167 143,407.5C 141.748,410.014 141.248,412.68 141.5,415.5C 140.511,420.975 140.178,426.642 140.5,432.5C 137.941,432.198 135.607,432.532 133.5,433.5C 127.528,433.561 121.861,434.894 116.5,437.5C 115.167,438.5 115.167,439.5 116.5,440.5C 118.115,441.154 119.782,441.654 121.5,442C 128.158,442.5 134.825,442.666 141.5,442.5C 141.584,446.755 142.251,450.922 143.5,455C 132,462.629 131.667,470.629 142.5,479C 150.494,480.346 155.494,477.179 157.5,469.5C 200.192,462.663 242.859,455.663 285.5,448.5C 293.764,453.656 300.264,451.989 305,443.5C 306.267,436.021 303.434,431.021 296.5,428.5C 289.209,404.962 281.542,381.628 273.5,358.5C 280.066,349.611 278.399,342.778 268.5,338C 264.979,337.309 261.645,337.809 258.5,339.5C 250.462,333.821 242.462,328.154 234.5,322.5C 235.352,316.204 233.019,311.538 227.5,308.5C 232.487,278.958 236.821,249.291 240.5,219.5C 245.724,218.61 249.057,215.61 250.5,210.5C 298.468,205.813 346.468,201.48 394.5,197.5C 396.193,200.19 398.527,202.19 401.5,203.5C 401.5,209.5 401.5,215.5 401.5,221.5C 391.703,228.065 391.036,235.399 399.5,243.5C 397.987,254.451 396.987,265.451 396.5,276.5C 387.694,279.786 385.194,285.786 389,294.5C 395.047,300.728 401.38,301.062 408,295.5C 412.333,287.957 410.833,281.957 403.5,277.5C 404.335,266.484 405.335,255.484 406.5,244.5C 416.01,241.81 418.843,235.81 415,226.5C 413.035,224.45 410.868,222.783 408.5,221.5C 408.5,215.5 408.5,209.5 408.5,203.5C 415.499,200.496 417.999,195.163 416,187.5C 413.028,183.039 408.861,180.372 403.5,179.5C 400.633,172.231 397.966,164.898 395.5,157.5C 402.201,145.578 398.868,138.911 385.5,137.5C 375.407,116.98 365.074,96.6462 354.5,76.5C 358.442,75.6857 362.109,74.1857 365.5,72C 360.785,69.8689 355.785,68.7023 350.5,68.5C 347.563,62.9586 344.896,57.2919 342.5,51.5C 348.194,40.8885 345.194,34.2219 333.5,31.5C 323.622,33.893 320.455,39.893 324,49.5C 325.333,50.8333 326.667,52.1667 328,53.5C 328.499,58.8229 328.666,64.1563 328.5,69.5C 323.113,69.4054 317.78,69.9054 312.5,71C 308.791,71.6884 305.457,73.1884 302.5,75.5C 304.99,77.714 307.99,78.8807 311.5,79C 317.491,79.4995 323.491,79.6662 329.5,79.5C 334.709,114.324 338.376,113.99 340.5,78.5C 342.409,77.6518 344.409,77.3184 346.5,77.5C 357.93,98.0247 368.596,119.025 378.5,140.5C 372.865,151.58 376.198,158.246 388.5,160.5C 391.696,168.088 394.696,175.754 397.5,183.5C 395.422,185.39 394.089,187.724 393.5,190.5C 345.808,194.587 298.141,198.92 250.5,203.5C 246.384,197.282 240.717,195.282 233.5,197.5C 224.983,186.494 215.983,175.827 206.5,165.5C 207.104,160.806 206.271,156.472 204,152.5C 198,147.167 192,147.167 186,152.5C 183.994,155.536 183.16,158.869 183.5,162.5C 163.545,174.472 143.878,186.805 124.5,199.5C 123.29,199.068 122.29,198.401 121.5,197.5C 125.904,165.909 130.904,134.409 136.5,103C 136.836,101.97 137.503,101.47 138.5,101.5C 149.872,103.806 156.205,99.1391 157.5,87.5C 156.233,78.2348 150.899,73.5681 141.5,73.5C 141.264,70.3915 141.597,67.3915 142.5,64.5C 152.419,60.3326 154.586,53.6659 149,44.5C 140.415,39.1798 133.748,40.8464 129,49.5C 128.209,55.583 130.376,60.2497 135.5,63.5C 135.268,70.8686 133.101,77.5352 129,83.5C 128.187,87.6645 128.687,91.6645 130.5,95.5C 126.103,121.112 121.936,146.779 118,172.5C 114.742,138.22 112.242,103.886 110.5,69.5C 118.869,63.4436 119.536,56.6103 112.5,49C 110.389,48.1553 108.389,47.322 106.5,46.5C 144.342,19.7739 186.342,4.10721 232.5,-0.5 Z"/></g>
<g><path style="opacity:1" fill="#f7f7f8" d="M 342.5,51.5 C 340.32,52.757 338.32,54.257 336.5,56C 337.32,57.8003 337.986,59.6336 338.5,61.5C 338.5,63.8333 338.5,66.1667 338.5,68.5C 339.833,68.5 341.167,68.5 342.5,68.5C 344.128,71.419 345.462,74.419 346.5,77.5C 344.409,77.3184 342.409,77.6518 340.5,78.5C 338.376,113.99 334.709,114.324 329.5,79.5C 323.491,79.6662 317.491,79.4995 311.5,79C 307.99,78.8807 304.99,77.714 302.5,75.5C 305.457,73.1884 308.791,71.6884 312.5,71C 317.78,69.9054 323.113,69.4054 328.5,69.5C 328.666,64.1563 328.499,58.8229 328,53.5C 326.667,52.1667 325.333,50.8333 324,49.5C 320.455,39.893 323.622,33.893 333.5,31.5C 345.194,34.2219 348.194,40.8885 342.5,51.5 Z"/></g>
<g><path style="opacity:1" fill="#f9f8f9" d="M 142.5,64.5 C 140.097,64.552 137.764,64.2186 135.5,63.5C 130.376,60.2497 128.209,55.583 129,49.5C 133.748,40.8464 140.415,39.1798 149,44.5C 154.586,53.6659 152.419,60.3326 142.5,64.5 Z"/></g>
<g><path style="opacity:0.976" fill="#fbfbfb" d="M 106.5,46.5 C 108.389,47.322 110.389,48.1553 112.5,49C 119.536,56.6103 118.869,63.4436 110.5,69.5C 108.236,70.2186 105.903,70.552 103.5,70.5C 96.7486,68.2026 93.4152,63.5359 93.5,56.5C 95.5134,50.1536 99.8467,46.8202 106.5,46.5 Z"/></g>
<g><path style="opacity:1" fill="#eecc71" d="M 342.5,51.5 C 344.896,57.2919 347.563,62.9586 350.5,68.5C 351.833,71.1667 353.167,73.8333 354.5,76.5C 365.074,96.6462 375.407,116.98 385.5,137.5C 382.794,137.688 380.461,138.688 378.5,140.5C 368.596,119.025 357.93,98.0247 346.5,77.5C 345.462,74.419 344.128,71.419 342.5,68.5C 341.404,65.9684 340.071,63.6351 338.5,61.5C 337.986,59.6336 337.32,57.8003 336.5,56C 338.32,54.257 340.32,52.757 342.5,51.5 Z"/></g>
<g><path style="opacity:1" fill="#2d2c3f" d="M 338.5,61.5 C 340.071,63.6351 341.404,65.9684 342.5,68.5C 341.167,68.5 339.833,68.5 338.5,68.5C 338.5,66.1667 338.5,63.8333 338.5,61.5 Z"/></g>
<g><path style="opacity:1" fill="#ebca6f" d="M 135.5,63.5 C 137.764,64.2186 140.097,64.552 142.5,64.5C 141.597,67.3915 141.264,70.3915 141.5,73.5C 139.474,81.7995 137.807,90.2995 136.5,99C 137.056,100.011 137.722,100.844 138.5,101.5C 137.503,101.47 136.836,101.97 136.5,103C 130.904,134.409 125.904,165.909 121.5,197.5C 118.133,196.253 114.799,196.253 111.5,197.5C 109,155.16 106.333,112.827 103.5,70.5C 105.903,70.552 108.236,70.2186 110.5,69.5C 112.242,103.886 114.742,138.22 118,172.5C 121.936,146.779 126.103,121.112 130.5,95.5C 128.687,91.6645 128.187,87.6645 129,83.5C 133.101,77.5352 135.268,70.8686 135.5,63.5 Z"/></g>
<g><path style="opacity:1" fill="#f8f8f7" d="M 350.5,68.5 C 355.785,68.7023 360.785,69.8689 365.5,72C 362.109,74.1857 358.442,75.6857 354.5,76.5C 353.167,73.8333 351.833,71.1667 350.5,68.5 Z"/></g>
<g><path style="opacity:1" fill="#f2c452" d="M 141.5,73.5 C 150.899,73.5681 156.233,78.2348 157.5,87.5C 156.205,99.1391 149.872,103.806 138.5,101.5C 137.722,100.844 137.056,100.011 136.5,99C 137.807,90.2995 139.474,81.7995 141.5,73.5 Z"/></g>
<g><path style="opacity:1" fill="#f0c251" d="M 407.5,119.5 C 416.264,117.802 422.764,120.802 427,128.5C 428.318,143.852 421.485,150.019 406.5,147C 395.591,137.437 395.924,128.27 407.5,119.5 Z"/></g>
<g><path style="opacity:1" fill="#fafafa" d="M 385.5,137.5 C 398.868,138.911 402.201,145.578 395.5,157.5C 393.176,158.656 390.843,159.656 388.5,160.5C 376.198,158.246 372.865,151.58 378.5,140.5C 380.461,138.688 382.794,137.688 385.5,137.5 Z"/></g>
<g><path style="opacity:1" fill="#faf9fa" d="M 206.5,165.5 C 204.5,166.833 202.833,168.5 201.5,170.5C 196.089,172.308 191.089,171.641 186.5,168.5C 185.486,166.426 184.486,164.426 183.5,162.5C 183.16,158.869 183.994,155.536 186,152.5C 192,147.167 198,147.167 204,152.5C 206.271,156.472 207.104,160.806 206.5,165.5 Z"/></g>
<g><path style="opacity:1" fill="#edcc72" d="M 395.5,157.5 C 397.966,164.898 400.633,172.231 403.5,179.5C 401.999,181.366 399.999,182.699 397.5,183.5C 394.696,175.754 391.696,168.088 388.5,160.5C 390.843,159.656 393.176,158.656 395.5,157.5 Z"/></g>
<g><path style="opacity:1" fill="#edcb70" d="M 183.5,162.5 C 184.486,164.426 185.486,166.426 186.5,168.5C 167.432,180.896 148.099,192.896 128.5,204.5C 126.457,203.421 125.124,201.754 124.5,199.5C 143.878,186.805 163.545,174.472 183.5,162.5 Z"/></g>
<g><path style="opacity:1" fill="#eccb70" d="M 206.5,165.5 C 215.983,175.827 224.983,186.494 233.5,197.5C 232.127,199.207 230.461,200.54 228.5,201.5C 219.264,191.354 210.264,181.02 201.5,170.5C 202.833,168.5 204.5,166.833 206.5,165.5 Z"/></g>
<g><path style="opacity:1" fill="#27273d" d="M 186.5,168.5 C 191.089,171.641 196.089,172.308 201.5,170.5C 210.264,181.02 219.264,191.354 228.5,201.5C 226.057,208.475 227.723,214.142 233.5,218.5C 229.127,247.446 225.127,276.446 221.5,305.5C 217.888,307.915 214.721,310.915 212,314.5C 211.322,318.221 211.489,321.888 212.5,325.5C 209.833,327.5 207.5,329.833 205.5,332.5C 195.252,328.965 189.252,332.631 187.5,343.5C 183.282,345.441 178.949,347.108 174.5,348.5C 172.281,346.394 169.615,345.394 166.5,345.5C 160.5,326.833 154.5,308.167 148.5,289.5C 152.856,289.744 156.856,288.744 160.5,286.5C 159.975,285.808 159.308,285.308 158.5,285C 154.514,284.501 150.514,284.334 146.5,284.5C 145.542,282.698 144.875,280.698 144.5,278.5C 144.862,274.919 143.862,271.919 141.5,269.5C 134.932,252.466 128.932,235.133 123.5,217.5C 126.525,213.735 128.191,209.401 128.5,204.5C 148.099,192.896 167.432,180.896 186.5,168.5 Z"/></g>
<g><path style="opacity:1" fill="#ececee" d="M 77.5,173.5 C 78.9663,174.347 79.7996,175.68 80,177.5C 80.498,180.482 80.6646,183.482 80.5,186.5C 85.3426,186.117 90.0093,186.783 94.5,188.5C 94.2907,189.086 93.9574,189.586 93.5,190C 89.5598,191.015 85.5598,191.515 81.5,191.5C 81.6655,195.514 81.4988,199.514 81,203.5C 80.6924,204.308 80.1924,204.975 79.5,205.5C 77.4006,201.435 76.4006,197.101 76.5,192.5C 72.4862,192.666 68.4862,192.499 64.5,192C 63.6919,191.692 63.0253,191.192 62.5,190.5C 66.4637,188.12 70.7971,187.12 75.5,187.5C 75.1179,182.633 75.7846,177.966 77.5,173.5 Z"/></g>
<g><path style="opacity:1" fill="#fafafa" d="M 403.5,179.5 C 408.861,180.372 413.028,183.039 416,187.5C 417.999,195.163 415.499,200.496 408.5,203.5C 406.167,203.5 403.833,203.5 401.5,203.5C 398.527,202.19 396.193,200.19 394.5,197.5C 393.781,195.236 393.448,192.903 393.5,190.5C 394.089,187.724 395.422,185.39 397.5,183.5C 399.999,182.699 401.999,181.366 403.5,179.5 Z"/></g>
<g><path style="opacity:1" fill="#eac96f" d="M 393.5,190.5 C 393.448,192.903 393.781,195.236 394.5,197.5C 346.468,201.48 298.468,205.813 250.5,210.5C 250.5,208.167 250.5,205.833 250.5,203.5C 298.141,198.92 345.808,194.587 393.5,190.5 Z"/></g>
<g><path style="opacity:1" fill="#fcfbfa" d="M 121.5,197.5 C 122.29,198.401 123.29,199.068 124.5,199.5C 125.124,201.754 126.457,203.421 128.5,204.5C 128.191,209.401 126.525,213.735 123.5,217.5C 121.412,218.939 119.079,219.606 116.5,219.5C 114.011,219.702 111.677,219.202 109.5,218C 102.267,210.263 102.934,203.429 111.5,197.5C 114.799,196.253 118.133,196.253 121.5,197.5 Z"/></g>
<g><path style="opacity:1" fill="#fafafa" d="M 250.5,203.5 C 250.5,205.833 250.5,208.167 250.5,210.5C 249.057,215.61 245.724,218.61 240.5,219.5C 238.05,219.702 235.717,219.369 233.5,218.5C 227.723,214.142 226.057,208.475 228.5,201.5C 230.461,200.54 232.127,199.207 233.5,197.5C 240.717,195.282 246.384,197.282 250.5,203.5 Z"/></g>
<g><path style="opacity:1" fill="#eecc72" d="M 401.5,203.5 C 403.833,203.5 406.167,203.5 408.5,203.5C 408.5,209.5 408.5,215.5 408.5,221.5C 406.167,221.5 403.833,221.5 401.5,221.5C 401.5,215.5 401.5,209.5 401.5,203.5 Z"/></g>
<g><path style="opacity:1" fill="#edcc71" d="M 123.5,217.5 C 128.932,235.133 134.932,252.466 141.5,269.5C 141.928,272.785 142.928,275.785 144.5,278.5C 144.875,280.698 145.542,282.698 146.5,284.5C 146.402,286.553 147.069,288.22 148.5,289.5C 154.5,308.167 160.5,326.833 166.5,345.5C 164.05,345.298 161.717,345.631 159.5,346.5C 155.031,332.426 150.364,318.426 145.5,304.5C 144.01,300.018 142.343,295.684 140.5,291.5C 140.5,291.167 140.5,290.833 140.5,290.5C 140.204,288.597 139.537,286.93 138.5,285.5C 131.368,263.438 124.035,241.438 116.5,219.5C 119.079,219.606 121.412,218.939 123.5,217.5 Z"/></g>
<g><path style="opacity:1" fill="#e9c86f" d="M 233.5,218.5 C 235.717,219.369 238.05,219.702 240.5,219.5C 236.821,249.291 232.487,278.958 227.5,308.5C 224.895,308.379 222.895,307.379 221.5,305.5C 225.127,276.446 229.127,247.446 233.5,218.5 Z"/></g>
<g><path style="opacity:1" fill="#fbfafa" d="M 401.5,221.5 C 403.833,221.5 406.167,221.5 408.5,221.5C 410.868,222.783 413.035,224.45 415,226.5C 418.843,235.81 416.01,241.81 406.5,244.5C 404.05,244.702 401.717,244.369 399.5,243.5C 391.036,235.399 391.703,228.065 401.5,221.5 Z"/></g>
<g><path style="opacity:1" fill="#f1c251" d="M 442.5,233.5 C 458.736,233.56 464.236,241.227 459,256.5C 453.053,262.848 446.219,264.014 438.5,260C 429.495,249.533 430.828,240.699 442.5,233.5 Z"/></g>
<g><path style="opacity:1" fill="#eac970" d="M 399.5,243.5 C 401.717,244.369 404.05,244.702 406.5,244.5C 405.335,255.484 404.335,266.484 403.5,277.5C 401.236,276.781 398.903,276.448 396.5,276.5C 396.987,265.451 397.987,254.451 399.5,243.5 Z"/></g>
<g><path style="opacity:1" fill="#d3d2d4" d="M 141.5,269.5 C 143.862,271.919 144.862,274.919 144.5,278.5C 142.928,275.785 141.928,272.785 141.5,269.5 Z"/></g>
<g><path style="opacity:1" fill="#fafafa" d="M 396.5,276.5 C 398.903,276.448 401.236,276.781 403.5,277.5C 410.833,281.957 412.333,287.957 408,295.5C 401.38,301.062 395.047,300.728 389,294.5C 385.194,285.786 387.694,279.786 396.5,276.5 Z"/></g>
<g><path style="opacity:1" fill="#f0c251" d="M 49.5,278.5 C 64.3511,278.174 70.1844,285.174 67,299.5C 59.4454,309.292 51.1121,309.958 42,301.5C 37.0796,291.354 39.5796,283.687 49.5,278.5 Z"/></g>
<g><path style="opacity:1" fill="#f0f0f2" d="M 360.5,277.5 C 361.966,278.347 362.8,279.68 363,281.5C 363.498,284.817 363.665,288.15 363.5,291.5C 367.514,291.334 371.514,291.501 375.5,292C 378.167,293 378.167,294 375.5,295C 371.886,295.936 368.22,296.436 364.5,296.5C 363.93,314.948 362.264,314.948 359.5,296.5C 354.639,296.937 349.972,296.437 345.5,295C 349.78,292.508 354.447,291.341 359.5,291.5C 359.226,286.737 359.559,282.07 360.5,277.5 Z"/></g>
<g><path style="opacity:1" fill="#f2f2f3" d="M 146.5,284.5 C 150.514,284.334 154.514,284.501 158.5,285C 159.308,285.308 159.975,285.808 160.5,286.5C 156.856,288.744 152.856,289.744 148.5,289.5C 147.069,288.22 146.402,286.553 146.5,284.5 Z"/></g>
<g><path style="opacity:1" fill="#f0efef" d="M 138.5,285.5 C 139.537,286.93 140.204,288.597 140.5,290.5C 135.821,290.666 131.155,290.499 126.5,290C 125.692,289.692 125.025,289.192 124.5,288.5C 128.764,285.909 133.431,284.909 138.5,285.5 Z"/></g>
<g><path style="opacity:1" fill="#e5e3e1" d="M 140.5,291.5 C 142.343,295.684 144.01,300.018 145.5,304.5C 144.85,304.804 144.183,305.137 143.5,305.5C 141.232,301.166 140.232,296.5 140.5,291.5 Z"/></g>
<g><path style="opacity:1" fill="#fbfbfa" d="M 221.5,305.5 C 222.895,307.379 224.895,308.379 227.5,308.5C 233.019,311.538 235.352,316.204 234.5,322.5C 233.18,324.463 231.846,326.463 230.5,328.5C 225.971,330.649 221.305,330.982 216.5,329.5C 215.5,327.833 214.167,326.5 212.5,325.5C 211.489,321.888 211.322,318.221 212,314.5C 214.721,310.915 217.888,307.915 221.5,305.5 Z"/></g>
<g><path style="opacity:1" fill="#eccb70" d="M 234.5,322.5 C 242.462,328.154 250.462,333.821 258.5,339.5C 256.774,341.228 255.441,343.228 254.5,345.5C 246.462,339.821 238.462,334.154 230.5,328.5C 231.846,326.463 233.18,324.463 234.5,322.5 Z"/></g>
<g><path style="opacity:1" fill="#edcc73" d="M 212.5,325.5 C 214.167,326.5 215.5,327.833 216.5,329.5C 214.909,332.431 212.909,335.098 210.5,337.5C 209.194,335.527 207.527,333.861 205.5,332.5C 207.5,329.833 209.833,327.5 212.5,325.5 Z"/></g>
<g><path style="opacity:1" fill="#27273d" d="M 230.5,328.5 C 238.462,334.154 246.462,339.821 254.5,345.5C 253.583,355.241 257.916,360.241 267.5,360.5C 274.704,383.446 281.704,406.446 288.5,429.5C 283.57,432.366 281.57,436.699 282.5,442.5C 240.746,448.651 199.079,455.318 157.5,462.5C 156.167,461.167 154.833,459.833 153.5,458.5C 153.98,452.614 154.98,446.948 156.5,441.5C 162.231,440.751 167.898,439.585 173.5,438C 178.833,436.333 178.833,434.667 173.5,433C 168.177,432.501 162.844,432.334 157.5,432.5C 160.421,413.633 163.754,394.967 167.5,376.5C 182.445,380.066 189.278,374.066 188,358.5C 186.97,356.654 185.804,354.987 184.5,353.5C 185.911,351.461 187.911,350.461 190.5,350.5C 204.363,357.235 211.03,352.902 210.5,337.5C 212.909,335.098 214.909,332.431 216.5,329.5C 221.305,330.982 225.971,330.649 230.5,328.5 Z"/></g>
<g><path style="opacity:1" fill="#f9f9f9" d="M 205.5,332.5 C 207.527,333.861 209.194,335.527 210.5,337.5C 211.03,352.902 204.363,357.235 190.5,350.5C 189.341,348.145 188.341,345.812 187.5,343.5C 189.252,332.631 195.252,328.965 205.5,332.5 Z"/></g>
<g><path style="opacity:1" fill="#fafafa" d="M 273.5,358.5 C 271.579,359.363 269.579,360.029 267.5,360.5C 257.916,360.241 253.583,355.241 254.5,345.5C 255.441,343.228 256.774,341.228 258.5,339.5C 261.645,337.809 264.979,337.309 268.5,338C 278.399,342.778 280.066,349.611 273.5,358.5 Z"/></g>
<g><path style="opacity:1" fill="#f0f0f1" d="M 451.5,339.5 C 452.75,339.577 453.583,340.244 454,341.5C 454.979,345.673 455.812,349.839 456.5,354C 476.366,354.982 476.366,356.815 456.5,359.5C 456.666,363.514 456.499,367.514 456,371.5C 455.716,373.886 454.716,374.552 453,373.5C 451.843,369.218 451.01,364.884 450.5,360.5C 446.486,360.666 442.486,360.499 438.5,360C 434.665,358.269 434.998,356.935 439.5,356C 443.086,354.892 446.753,354.392 450.5,354.5C 450.221,349.405 450.555,344.405 451.5,339.5 Z"/></g>
<g><path style="opacity:1" fill="#eecc72" d="M 187.5,343.5 C 188.341,345.812 189.341,348.145 190.5,350.5C 187.911,350.461 185.911,351.461 184.5,353.5C 182.139,353.674 179.806,354.007 177.5,354.5C 176.5,352.5 175.5,350.5 174.5,348.5C 178.949,347.108 183.282,345.441 187.5,343.5 Z"/></g>
<g><path style="opacity:1" fill="#fcfbf9" d="M 166.5,345.5 C 169.615,345.394 172.281,346.394 174.5,348.5C 175.5,350.5 176.5,352.5 177.5,354.5C 177.599,361.639 174.266,366.306 167.5,368.5C 165.097,368.552 162.764,368.219 160.5,367.5C 156.175,365.188 154.175,361.522 154.5,356.5C 154.06,352.046 155.727,348.713 159.5,346.5C 161.717,345.631 164.05,345.298 166.5,345.5 Z"/></g>
<g><path style="opacity:1" fill="#f1c352" d="M 184.5,353.5 C 185.804,354.987 186.97,356.654 188,358.5C 189.278,374.066 182.445,380.066 167.5,376.5C 167.5,373.833 167.5,371.167 167.5,368.5C 174.266,366.306 177.599,361.639 177.5,354.5C 179.806,354.007 182.139,353.674 184.5,353.5 Z"/></g>
<g><path style="opacity:1" fill="#ecca70" d="M 273.5,358.5 C 281.542,381.628 289.209,404.962 296.5,428.5C 293.763,428.401 291.096,428.735 288.5,429.5C 281.704,406.446 274.704,383.446 267.5,360.5C 269.579,360.029 271.579,359.363 273.5,358.5 Z"/></g>
<g><path style="opacity:1" fill="#eecc71" d="M 160.5,367.5 C 162.764,368.219 165.097,368.552 167.5,368.5C 167.5,371.167 167.5,373.833 167.5,376.5C 163.754,394.967 160.421,413.633 157.5,432.5C 156.597,435.391 156.264,438.391 156.5,441.5C 154.98,446.948 153.98,452.614 153.5,458.5C 151.412,457.061 149.079,456.394 146.5,456.5C 148.268,446.557 149.602,436.557 150.5,426.5C 154.785,407.126 158.118,387.459 160.5,367.5 Z"/></g>
<g><path style="opacity:1" fill="#f8f8f9" d="M 150.5,426.5 C 149.602,436.557 148.268,446.557 146.5,456.5C 149.079,456.394 151.412,457.061 153.5,458.5C 154.833,459.833 156.167,461.167 157.5,462.5C 157.5,464.833 157.5,467.167 157.5,469.5C 155.494,477.179 150.494,480.346 142.5,479C 131.667,470.629 132,462.629 143.5,455C 142.251,450.922 141.584,446.755 141.5,442.5C 134.825,442.666 128.158,442.5 121.5,442C 119.782,441.654 118.115,441.154 116.5,440.5C 115.167,439.5 115.167,438.5 116.5,437.5C 121.861,434.894 127.528,433.561 133.5,433.5C 136.167,433.5 138.833,433.5 141.5,433.5C 141.5,427.5 141.5,421.5 141.5,415.5C 141.248,412.68 141.748,410.014 143,407.5C 144,406.167 145,406.167 146,407.5C 148.691,413.546 150.191,419.88 150.5,426.5 Z"/></g>
<g><path style="opacity:1" fill="#f0c251" d="M 375.5,422.5 C 385.23,420.115 392.063,423.449 396,432.5C 396.28,446.548 389.447,452.381 375.5,450C 367.25,444.151 365.417,436.651 370,427.5C 371.812,425.7 373.645,424.033 375.5,422.5 Z"/></g>
<g><path style="opacity:1" fill="#9898a2" d="M 141.5,415.5 C 141.5,421.5 141.5,427.5 141.5,433.5C 138.833,433.5 136.167,433.5 133.5,433.5C 135.607,432.532 137.941,432.198 140.5,432.5C 140.178,426.642 140.511,420.975 141.5,415.5 Z"/></g>
<g><path style="opacity:1" fill="#fafafa" d="M 296.5,428.5 C 303.434,431.021 306.267,436.021 305,443.5C 300.264,451.989 293.764,453.656 285.5,448.5C 284.123,446.711 283.123,444.711 282.5,442.5C 281.57,436.699 283.57,432.366 288.5,429.5C 291.096,428.735 293.763,428.401 296.5,428.5 Z"/></g>
<g><path style="opacity:1" fill="#f8f8f7" d="M 157.5,432.5 C 162.844,432.334 168.177,432.501 173.5,433C 178.833,434.667 178.833,436.333 173.5,438C 167.898,439.585 162.231,440.751 156.5,441.5C 156.264,438.391 156.597,435.391 157.5,432.5 Z"/></g>
<g><path style="opacity:1" fill="#ebc96f" d="M 282.5,442.5 C 283.123,444.711 284.123,446.711 285.5,448.5C 242.859,455.663 200.192,462.663 157.5,469.5C 157.5,467.167 157.5,464.833 157.5,462.5C 199.079,455.318 240.746,448.651 282.5,442.5 Z"/></g>
</svg>
